<mxfile host="app.diagrams.net" agent="Mozilla/5.0 (Windows NT 10.0; Win64; x64) AppleWebKit/537.36 (KHTML, like Gecko) Chrome/139.0.0.0 Safari/537.36" version="28.0.7">
  <diagram name="第 1 页" id="s4od_FzOuv7aOw8bwn2n">
    <mxGraphModel dx="984" dy="525" grid="0" gridSize="10" guides="1" tooltips="1" connect="1" arrows="1" fold="1" page="1" pageScale="1" pageWidth="3300" pageHeight="4681" math="0" shadow="0">
      <root>
        <mxCell id="0" />
        <mxCell id="1" parent="0" />
        <mxCell id="PUeNJCWsjdZGmU5D6TeH-1" value="电机鉴权流程说明：" style="text;html=1;align=center;verticalAlign=middle;resizable=0;points=[];autosize=1;strokeColor=none;fillColor=none;strokeWidth=1;fontSize=14;" vertex="1" parent="1">
          <mxGeometry x="48" y="42" width="144" height="29" as="geometry" />
        </mxCell>
        <mxCell id="PUeNJCWsjdZGmU5D6TeH-3" value="情况1：无控制器" style="text;html=1;align=center;verticalAlign=middle;whiteSpace=wrap;rounded=0;" vertex="1" parent="1">
          <mxGeometry x="116" y="85" width="122" height="30" as="geometry" />
        </mxCell>
        <mxCell id="PUeNJCWsjdZGmU5D6TeH-4" value="电机" style="rounded=1;whiteSpace=wrap;html=1;" vertex="1" parent="1">
          <mxGeometry x="116" y="133" width="71" height="24" as="geometry" />
        </mxCell>
        <mxCell id="PUeNJCWsjdZGmU5D6TeH-6" value="心跳反馈未鉴权状态" style="rounded=1;whiteSpace=wrap;html=1;" vertex="1" parent="1">
          <mxGeometry x="89" y="181" width="125" height="24" as="geometry" />
        </mxCell>
        <mxCell id="PUeNJCWsjdZGmU5D6TeH-7" value="平板上位机" style="rounded=1;whiteSpace=wrap;html=1;" vertex="1" parent="1">
          <mxGeometry x="284" y="133" width="71" height="24" as="geometry" />
        </mxCell>
      </root>
    </mxGraphModel>
  </diagram>
</mxfile>
